# xmcd CD database file
#
# Track frame offsets:
#	150
#	15620
#	28895
#	44034
#	58582
#	82085
#	98505
#	127318
#	146084
#	163819
#	179148
#	193996
#	208209
#	226654
#	244018
#
# Disc length: 3439 seconds
#
# Revision: 0
# Processed by: cddbd v1.5.2PL0 Copyright (c) Steve Scherf et al.
# Submitted via: CDex 1.51
#
DISCID=e50d6d0f
DTITLE=Sexteto Juventud - 45 Aniversario Salsa
DYEAR=2007
DGENRE=Salsa
TTITLE0=Un Pato
TTITLE1=Changa Guere
TTITLE2=El Picotero
TTITLE3=Pa` la Guaira
TTITLE4=Tatali Baba
TTITLE5=Sonerito
TTITLE6=La Carcel
TTITLE7=La Ley
TTITLE8=Negro
TTITLE9=Ahora soy Feliz
TTITLE10=Espiritualmente
TTITLE11=Soy el Bravo
TTITLE12=Mala
TTITLE13=San Bartolo
TTITLE14=Lo Bueno de Mi
EXTD=YEAR: 2007
EXTT0=
EXTT1=
EXTT2=
EXTT3=
EXTT4=
EXTT5=
EXTT6=
EXTT7=
EXTT8=
EXTT9=
EXTT10=
EXTT11=
EXTT12=
EXTT13=
EXTT14=
PLAYORDER=
